<?xml version="1.0" encoding="UTF-8" standalone="no"?>
<!-- Created with Inkscape (http://www.inkscape.org/) -->

<svg
   width="500mm"
   height="500mm"
   viewBox="0 0 500 500"
   version="1.1"
   id="svg1"
   xmlns="http://www.w3.org/2000/svg"
   xmlns:svg="http://www.w3.org/2000/svg">
  <defs
     id="defs1" />
  <g
     id="layer1">
    <path
       d="m 232.3507,121.83831 v 82.76662 c 0,35.24662 6.60874,54.44345 22.97324,66.40212 5.97934,4.09113 7.23815,4.72053 19.51153,8.18225 -13.84689,3.77643 -22.02914,8.49696 -28.32318,16.36451 -9.12636,10.69987 -14.16159,32.0996 -14.16159,59.47867 v 81.50782 h 24.54675 v -86.22835 c 0,-21.08503 2.51762,-39.65245 6.60875,-48.7788 4.72053,-10.38517 15.7351,-18.56742 27.06437,-19.51153 v -5.66463 c -14.16159,-1.25881 -28.00848,-15.1057 -31.1555,-32.09961 -1.57351,-7.55285 -2.51762,-23.60265 -2.51762,-35.56132 v -86.85775 z"
       id="text4"
       style="font-size:314.702px;font-family:Monospace;-inkscape-font-specification:Monospace;letter-spacing:0px;stroke:#000000;stroke-width:16.3905;stroke-linecap:round;stroke-linejoin:round"
       transform="matrix(0.9619487,-0.14466454,0.18085993,1.0123575,0,0)"
       aria-label="⎬" />
    <path
       d="M 123.62743,398.78164 H 49.904142 V 80.198494 H 123.62743 V 106.16274 H 79.469264 v 267.0337 h 44.158166 z"
       id="text6"
       style="font-size:388.137px;font-family:Monospace;-inkscape-font-specification:Monospace;letter-spacing:0px;stroke:#000000;stroke-width:20.2153;stroke-linecap:round;stroke-linejoin:round"
       transform="scale(0.97478542,1.0258668)"
       aria-label="[" />
    <path
       d="m 183.2887,226.20438 q -15.35112,0 -26.15376,-10.80264 -10.61313,-10.80264 -10.61313,-25.5852 0,-15.35112 10.80265,-25.96424 10.99216,-10.80264 25.96424,-10.80264 14.78256,0 25.5852,10.80264 10.80264,10.61312 10.80264,25.96424 0,14.78256 -10.61312,25.5852 -10.61312,10.80264 -25.77472,10.80264 z m 0,-12.50832 q 10.04456,0 16.86728,-7.20176 7.01224,-7.39128 7.01224,-16.67776 0,-9.85504 -7.20176,-17.0568 -7.01224,-7.20176 -16.67776,-7.20176 -10.04456,0 -17.24632,7.20176 -7.01224,7.20176 -7.01224,17.0568 0,9.28648 7.01224,16.67776 7.01224,7.20176 17.24632,7.20176 z m 0,116.74433 q -15.35112,0 -26.15376,-10.80264 -10.61313,-10.80264 -10.61313,-25.5852 0,-15.35112 10.80265,-25.96424 10.99216,-10.80264 25.96424,-10.80264 14.78256,0 25.5852,10.80264 10.80264,10.61312 10.80264,25.96424 0,14.78256 -10.61312,25.5852 -10.61312,10.80264 -25.77472,10.80264 z m 0,-12.50832 q 10.04456,0 16.86728,-7.20176 7.01224,-7.39128 7.01224,-16.67776 0,-9.85504 -7.20176,-17.0568 -7.01224,-7.20176 -16.67776,-7.20176 -10.04456,0 -17.24632,7.20176 -7.01224,7.20176 -7.01224,17.0568 0,9.28648 7.01224,16.67776 7.01224,7.20176 17.24632,7.20176 z"
       id="text5"
       style="font-size:388.137px;font-family:Monospace;-inkscape-font-specification:Monospace;letter-spacing:0px;stroke:#000000;stroke-width:20.2153;stroke-linecap:round;stroke-linejoin:round"
       transform="scale(0.97478542,1.0258668)"
       aria-label="⦂" />
    <path
       d="m 458.3295,397.71494 h -75.61849 v -25.58521 h 46.05337 V 105.47507 H 382.71101 V 79.889869 h 75.61849 z"
       id="text3"
       style="font-size:388.137px;font-family:Monospace;-inkscape-font-specification:Monospace;letter-spacing:0px;stroke:#000000;stroke-width:20.2153;stroke-linecap:round;stroke-linejoin:round"
       transform="scale(0.97478542,1.0258668)"
       aria-label="]" />
  </g>
</svg>
